<svg fill="none" height="1em" stroke="currentColor" viewBox="0 0 18 18" width="1em" x="0px" xmlns="http://www.w3.org/2000/svg" xmlns:xlink="http://www.w3.org/1999/xlink" y="0px">
      <polyline
        points="14.983 5.53 9 9 3.017 5.53"
        fill="none"
        stroke-linecap="round"
        stroke-linejoin="round"
        stroke-width="1.5"
        data-color="color-2"
      ></polyline>
      <line
        x1="9"
        y1="15.938"
        x2="9"
        y2="9"
        fill="none"
        stroke-linecap="round"
        stroke-linejoin="round"
        stroke-width="1.5"
        data-color="color-2"
      ></line>
      <path
        d="M7.997,2.332L3.747,4.797c-.617,.358-.997,1.017-.997,1.73v4.946c0,.713,.38,1.372,.997,1.73l4.25,2.465c.621,.36,1.386,.36,2.007,0l4.25-2.465c.617-.358,.997-1.017,.997-1.73V6.527c0-.713-.38-1.372-.997-1.73l-4.25-2.465c-.621-.36-1.386-.36-2.007,0Z"
        fill="none"
        stroke-linecap="round"
        stroke-linejoin="round"
        stroke-width="1.5"
      ></path>
    </svg>
