<svg fill="none" height="1em" stroke="currentColor" viewBox="0 0 18 18" width="1em" x="0px" xmlns="http://www.w3.org/2000/svg" xmlns:xlink="http://www.w3.org/1999/xlink" y="0px">
      <path
        d="M7.25,16.25v-3.75c0-.966,.784-1.75,1.75-1.75h0c.966,0,1.75,.784,1.75,1.75v3.75"
        fill="none"
        stroke-linecap="round"
        stroke-linejoin="round"
        stroke-width="1.5"
        data-color="color-2"
      ></path>
      <path
        d="M3.145,6.2l5.25-3.99c.358-.272,.853-.272,1.21,0l5.25,3.99c.249,.189,.395,.484,.395,.796v7.254c0,1.105-.895,2-2,2H4.75c-1.105,0-2-.895-2-2V6.996c0-.313,.146-.607,.395-.796Z"
        fill="none"
        stroke-linecap="round"
        stroke-linejoin="round"
        stroke-width="1.5"
      ></path>
    </svg>
