<svg fill="none" height="1em" stroke="currentColor" viewBox="0 0 18 18" width="1em" x="0px" xmlns="http://www.w3.org/2000/svg" xmlns:xlink="http://www.w3.org/1999/xlink" y="0px">
      <path
        d="M13.25 2.75H4.75C3.64543 2.75 2.75 3.64543 2.75 4.75V13.25C2.75 14.3546 3.64543 15.25 4.75 15.25H13.25C14.3546 15.25 15.25 14.3546 15.25 13.25V4.75C15.25 3.64543 14.3546 2.75 13.25 2.75Z"
        fill-opacity="0.3"
        data-color="color-2"
        data-stroke="none"
      ></path>
      <path
        d="M13 9H11.5L10.25 12.25L7.75 5.75L6.5 9H5"
        stroke-width="1.5"
        stroke-linecap="round"
        stroke-linejoin="round"
        fill="none"
      ></path>
      <path
        d="M13.25 2.75H4.75C3.64543 2.75 2.75 3.64543 2.75 4.75V13.25C2.75 14.3546 3.64543 15.25 4.75 15.25H13.25C14.3546 15.25 15.25 14.3546 15.25 13.25V4.75C15.25 3.64543 14.3546 2.75 13.25 2.75Z"
        stroke-width="1.5"
        stroke-linecap="round"
        stroke-linejoin="round"
        fill="none"
      ></path>
    </svg>
