<svg fill="none" height="1em" stroke="currentColor" viewBox="0 0 18 18" width="1em" x="0px" xmlns="http://www.w3.org/2000/svg" xmlns:xlink="http://www.w3.org/1999/xlink" y="0px">
      <path
        d="M2.25,5.5h0c0-1.733,1.249-3.213,2.957-3.505L11.769,.875c.434-.074,.866,.145,1.063,.539l.053,.106"
        fill="none"
        stroke-linecap="round"
        stroke-linejoin="round"
        stroke-width="1.5"
        data-color="color-2"
      ></path>
      <path
        d="M15.75,11.25v2c0,1.105-.895,2-2,2H4.25c-1.105,0-2-.895-2-2V5.75c0-1.105,.895-2,2-2H13.75c1.105,0,2,.895,2,2v2"
        fill="none"
        stroke-linecap="round"
        stroke-linejoin="round"
        stroke-width="1.5"
      ></path>
      <path
        d="M15.75,11.25h-2.75c-.966,0-1.75-.784-1.75-1.75h0c0-.967,.784-1.75,1.75-1.75h2.75c.552,0,1,.448,1,1v1.5c0,.552-.448,1-1,1Z"
        fill="none"
        stroke-linecap="round"
        stroke-linejoin="round"
        stroke-width="1.5"
      ></path>
    </svg>
