<svg fill="none" height="1em" stroke="currentColor" viewBox="0 0 18 18" width="1em" x="0px" xmlns="http://www.w3.org/2000/svg" xmlns:xlink="http://www.w3.org/1999/xlink" y="0px">
      <path
        d="M9.5,4.75l2-3c0-.552-.448-1-1-1h-2.75s-2.75,0-2.75,0c-.552,0-1,.448-1,1l2,3h3.5Z"
        fill="none"
        stroke-linecap="round"
        stroke-linejoin="round"
        stroke-width="1.5"
      ></path>
      <line
        x1="7.75"
        y1="4.75"
        x2="7.75"
        y2="3.25"
        fill="none"
        stroke-linecap="round"
        stroke-linejoin="round"
        stroke-width="1.5"
      ></line>
      <path
        d="M12.156,7.25c-.722-1.06-1.641-1.956-2.656-2.5"
        fill="none"
        stroke-linecap="round"
        stroke-linejoin="round"
        stroke-width="1.5"
      ></path>
      <path
        d="M6,4.75C3.609,6.031,1.75,9.266,1.75,12c0,3.314,2.686,4.25,6,4.25,.207,0,.412-.004,.613-.011"
        fill="none"
        stroke-linecap="round"
        stroke-linejoin="round"
        stroke-width="1.5"
      ></path>
      <rect
        x="10.75"
        y="7.25"
        width="6.5"
        height="3"
        rx="1"
        ry="1"
        fill="none"
        stroke-linecap="round"
        stroke-linejoin="round"
        stroke-width="1.5"
        data-color="color-2"
      ></rect>
      <rect
        x="9.75"
        y="10.25"
        width="6.5"
        height="3"
        rx="1"
        ry="1"
        fill="none"
        stroke-linecap="round"
        stroke-linejoin="round"
        stroke-width="1.5"
        data-color="color-2"
      ></rect>
      <rect
        x="10.75"
        y="13.25"
        width="6.5"
        height="3"
        rx="1"
        ry="1"
        fill="none"
        stroke-linecap="round"
        stroke-linejoin="round"
        stroke-width="1.5"
        data-color="color-2"
      ></rect>
    </svg>
